<?xml version="1.0" standalone="no"?>
<!DOCTYPE svg PUBLIC "-//W3C//DTD SVG 20010904//EN"
 "http://www.w3.org/TR/2001/REC-SVG-20010904/DTD/svg10.dtd">
<svg version="1.0" xmlns="http://www.w3.org/2000/svg"
 width="450.000000pt" height="317.000000pt" viewBox="0 0 450.000000 317.000000"
 preserveAspectRatio="xMidYMid meet">
<metadata>
Created by potrace 1.15, written by Peter Selinger 2001-2017
</metadata>
<g transform="translate(0.000000,317.000000) scale(0.100000,-0.100000)"
fill="#000000" stroke="none">
<path d="M0 3097 c0 -40 5 -78 11 -84 8 -8 8 -13 0 -17 -8 -5 -11 -291 -11
-982 0 -1003 1 -1016 36 -945 13 26 34 49 34 37 0 -4 -5 -17 -12 -29 -7 -12
-12 -29 -13 -37 0 -9 -9 -15 -22 -14 -16 0 -23 -5 -23 -18 0 -26 56 -25 72 2
7 11 18 20 25 20 18 0 16 -6 -8 -40 -18 -24 -26 -28 -55 -23 l-34 6 0 -52 c0
-56 10 -65 29 -24 10 21 14 24 21 13 7 -11 11 -12 25 0 9 7 14 19 11 26 -2 6
2 20 9 31 13 17 14 17 15 1 0 -10 -5 -18 -11 -18 -5 0 -8 -4 -4 -10 14 -23 -8
-60 -51 -80 -41 -20 -44 -25 -44 -60 0 -47 25 -74 45 -47 7 9 18 17 25 17 8 0
21 7 31 16 18 16 39 12 39 -8 0 -5 -7 -8 -15 -4 -9 3 -19 -3 -25 -14 -6 -11
-20 -20 -30 -20 -11 0 -20 -4 -20 -10 0 -14 -37 -12 -43 3 -3 6 -4 -49 -3
-123 1 -116 3 -135 17 -138 10 -2 20 6 24 20 8 21 8 21 12 -8 2 -19 11 -34 21
-37 9 -3 25 -8 34 -12 15 -6 18 -2 18 24 0 17 5 31 10 31 6 0 10 -7 10 -15 0
-8 4 -15 9 -15 5 0 9 -16 9 -36 l0 -35 -39 6 c-40 7 -49 -1 -27 -23 9 -9 8
-12 -4 -12 -20 0 -30 24 -15 39 7 7 -2 16 -34 30 -49 22 -65 18 -32 -9 13 -10
23 -26 23 -35 0 -15 -1 -15 -16 -1 -8 9 -17 16 -18 16 -1 0 -3 -23 -4 -52 l-1
-52 24 29 c21 27 24 28 25 10 0 -24 -28 -67 -39 -60 -5 2 -9 -28 -9 -68 -1
-69 0 -74 26 -90 l27 -16 -27 -1 c-21 0 -28 -5 -28 -20 0 -11 5 -20 10 -20 6
0 10 -5 10 -11 0 -5 -4 -7 -10 -4 -6 3 -10 -5 -10 -18 0 -22 4 -25 42 -25 24
-1 46 5 51 11 7 9 10 9 14 -1 4 -9 156 -12 712 -12 l708 0 13 40 c7 22 19 40
27 40 15 0 18 -26 3 -35 -6 -3 -10 -15 -10 -26 0 -19 14 -19 748 -19 l748 0
18 50 c10 28 28 57 39 65 23 16 112 21 103 6 -3 -5 -15 -7 -25 -4 -25 6 -68
-23 -87 -58 -27 -53 -21 -59 55 -59 l69 0 7 42 c8 47 22 79 39 90 6 4 -650 8
-1457 8 -808 0 -1473 2 -1478 5 -5 4 -9 120 -9 271 l0 264 355 0 c307 0 356 2
367 15 7 9 41 46 75 82 l61 66 69 1 c119 2 290 -45 433 -119 l88 -44 241 0
241 0 0 27 c0 53 30 525 33 528 2 2 51 -121 109 -274 l106 -277 826 -3 826 -2
-2 -268 -3 -267 -218 -2 c-199 -1 -220 -3 -233 -20 -12 -16 -13 -16 -14 -2 0
13 -12 18 -46 21 -25 2 -51 0 -59 -5 -16 -9 -35 -68 -35 -110 l0 -27 73 2 c39
2 74 6 77 10 4 4 26 10 50 13 25 3 53 8 63 11 9 3 17 1 17 -5 0 -6 -9 -11 -19
-11 -11 0 -23 -4 -26 -10 -4 -6 123 -10 355 -10 l360 0 0 122 c0 95 -3 119
-12 110 -7 -7 -16 -12 -20 -12 -15 0 -8 20 12 37 18 16 19 32 20 346 0 251 -3
333 -12 345 -10 13 -10 14 0 8 9 -6 12 69 12 358 l0 366 -25 6 c-24 6 -32 23
-19 37 4 3 15 2 25 -4 16 -8 19 -6 19 10 0 26 -28 35 -56 16 -29 -19 -34 -19
-34 -1 0 8 -4 16 -10 18 -15 5 0 48 17 48 10 0 14 -7 10 -20 -7 -27 4 -32 42
-19 28 10 32 15 29 43 -3 30 -5 31 -45 30 -46 -2 -63 22 -20 28 12 2 22 10 22
18 0 11 -12 15 -42 15 -30 1 -47 6 -58 20 -20 28 -18 37 7 30 17 -6 20 -4 15
10 -4 9 -7 28 -7 42 0 16 -7 27 -20 30 -11 3 -20 9 -20 14 0 17 19 18 46 4 17
-9 30 -11 32 -5 2 6 13 8 25 5 13 -3 31 3 45 14 l23 20 -3 267 c-3 227 -5 268
-18 272 -12 4 -13 2 -2 -9 22 -23 13 -29 -42 -24 -36 2 -60 -1 -72 -10 -18
-13 -17 -14 9 -15 15 0 27 -4 27 -10 0 -20 -57 -10 -74 13 -16 22 -16 22 -11
-10 6 -30 3 -33 -35 -53 -48 -25 -67 -18 -31 11 18 14 21 23 13 31 -18 18 -39
2 -46 -36 -7 -35 -22 -54 -33 -42 -3 3 -1 12 5 19 13 15 6 27 -16 27 -8 0 -12
-6 -8 -15 4 -12 -3 -15 -32 -14 -20 0 -31 3 -24 6 14 5 17 33 3 33 -6 0 -13
-4 -16 -10 -9 -15 -45 -12 -51 5 -10 24 -27 17 -20 -8 5 -21 3 -23 -29 -19
-34 4 -45 15 -26 26 5 3 11 15 14 26 9 34 -21 23 -39 -15 -18 -38 -24 -41 -42
-23 -18 18 -27 1 -14 -27 9 -20 9 -25 -3 -25 -17 0 -23 38 -10 67 10 23 25 31
25 13 0 -5 7 -10 16 -10 11 0 14 5 10 16 -4 9 -1 23 6 32 11 13 9 14 -17 8
-52 -13 -109 -15 -121 -5 -8 7 -14 7 -19 -1 -9 -14 -51 -13 -75 2 -16 10 -25
9 -52 -6 -18 -11 -37 -25 -41 -33 -15 -25 -24 -13 -25 35 -2 101 -2 138 4 173
l5 36 187 17 c237 21 384 35 493 47 47 5 108 9 135 9 99 0 94 -8 94 161 l0
149 -1979 0 -1979 0 -6 -23 c-3 -12 -6 -32 -6 -44 0 -15 -6 -23 -16 -23 -14 0
-16 8 -12 45 l6 45 -52 -1 c-28 0 -45 -3 -38 -6 6 -2 12 -14 12 -26 1 -21 1
-21 12 -2 11 19 11 19 19 0 15 -38 10 -44 -31 -43 -40 0 -51 13 -28 36 22 22
-10 42 -67 42 -49 0 -53 -1 -47 -22 3 -14 2 -19 -6 -14 -7 4 -12 14 -12 22 0
8 -9 14 -21 14 -19 0 -21 -4 -15 -32 3 -17 15 -37 26 -45 22 -15 21 -53 -3
-99 -13 -25 -13 -32 -1 -49 22 -30 17 -70 -11 -89 -30 -20 -32 -36 -5 -36 13
0 22 9 26 25 4 16 13 25 25 25 26 0 24 -16 -6 -36 -21 -14 -25 -24 -25 -65 0
-27 -4 -49 -9 -49 -5 0 -21 36 -36 80 -15 44 -30 80 -34 80 -13 0 -31 -24 -31
-42 0 -56 -48 23 -90 148 -27 78 -28 89 -15 113 15 28 15 28 20 -40 1 -26 14
-65 29 -93 14 -25 26 -56 26 -66 0 -20 15 -25 44 -14 20 8 21 34 2 34 -11 0
-13 18 -10 88 2 48 6 104 9 125 l5 37 -85 0 -85 0 0 -73z m2720 56 c0 -5 19
-17 43 -27 43 -20 114 -67 148 -98 10 -10 19 -16 19 -13 0 2 19 -14 42 -35 23
-22 44 -40 48 -40 28 0 170 -188 170 -226 0 -14 9 -15 68 -10 37 4 98 9 135
11 l68 4 -3 -49 -3 -50 -33 6 c-22 4 -40 1 -57 -10 -24 -16 -26 -20 -19 -77 7
-64 24 -103 67 -160 15 -20 27 -39 27 -43 0 -3 21 -32 46 -64 25 -31 51 -64
58 -72 7 -9 15 -24 19 -34 7 -18 8 -18 21 -1 9 13 15 15 20 6 4 -6 18 -8 32
-5 21 5 24 3 24 -21 0 -18 -6 -29 -20 -32 -11 -3 -20 -9 -20 -14 0 -4 9 -13
20 -19 11 -6 20 -17 20 -26 0 -8 13 -17 31 -21 36 -7 49 -31 26 -48 -15 -11
-15 -14 -3 -24 8 -7 12 -19 9 -28 -5 -12 -1 -14 17 -8 21 7 22 5 16 -19 -5
-19 -3 -26 9 -26 8 0 15 5 15 10 0 6 6 10 14 10 18 0 29 17 21 30 -5 8 -12 7
-22 -1 -12 -10 -16 -10 -24 2 -5 8 -9 17 -9 20 0 15 49 14 98 0 42 -12 55 -22
68 -49 8 -18 13 -39 11 -47 -6 -14 -54 -15 -74 -2 -8 5 -13 3 -13 -5 0 -7 12
-20 26 -29 21 -13 27 -25 30 -66 3 -37 0 -54 -11 -63 -13 -10 -15 -9 -15 9 0
12 -6 21 -15 21 -20 0 -19 10 3 26 15 12 15 13 1 14 -10 0 -31 16 -49 36 -38
44 -50 38 -21 -11 11 -20 21 -44 21 -53 0 -10 7 -28 16 -41 16 -22 16 -32 -1
-140 -10 -64 -22 -126 -26 -138 -10 -28 -29 -30 -29 -3 0 11 -8 38 -17 60 -17
38 -20 40 -63 40 -76 0 -228 65 -206 88 4 3 17 -4 29 -16 13 -12 26 -20 29
-17 3 3 22 -2 42 -10 21 -9 62 -17 91 -19 48 -3 57 0 78 23 48 53 73 111 47
111 -5 0 -10 -5 -10 -12 0 -19 -44 -78 -57 -78 -7 0 -13 4 -13 9 0 5 -11 12
-25 15 -18 5 -25 13 -25 30 0 13 -7 29 -15 36 -9 7 -23 29 -32 49 -9 20 -23
40 -30 44 -7 4 -13 14 -13 21 0 21 -126 144 -164 160 -43 18 -106 67 -106 83
0 6 -21 31 -46 57 -44 43 -114 161 -114 191 0 9 6 12 18 8 14 -5 13 -3 -3 10
-11 9 -26 17 -32 17 -7 0 -20 15 -29 33 -22 43 -72 87 -99 87 -14 0 -26 10
-33 25 -7 14 -20 25 -31 25 -10 0 -24 7 -31 15 -7 8 -17 15 -22 15 -5 0 -25 8
-46 17 -37 17 -46 20 -69 22 -6 0 -32 17 -58 36 -62 48 -81 41 -84 -26 -1 -28
-11 -67 -22 -87 -23 -44 -25 -117 -4 -159 13 -27 13 -33 -1 -62 -9 -18 -14
-41 -11 -52 3 -10 1 -22 -5 -25 -5 -3 -12 -14 -16 -25 -5 -12 -12 -15 -20 -10
-11 6 -10 11 3 24 11 12 13 22 7 33 -5 9 -7 26 -5 38 4 20 3 20 -17 -3 -20
-23 -21 -23 -34 -5 -8 10 -18 15 -23 11 -4 -5 1 -15 12 -23 30 -22 17 -75 -19
-80 -8 -1 -17 8 -21 20 l-8 21 -4 -22 c-5 -24 -22 -30 -39 -14 -8 9 -50 15
-84 12 -13 -1 -13 -2 0 -11 13 -8 13 -11 1 -22 -11 -11 -14 -11 -18 0 -4 10
-8 10 -21 0 -11 -10 -16 -10 -19 -1 -2 7 -11 9 -19 6 -8 -3 -14 1 -14 11 0 9
-6 16 -13 16 -7 0 -23 14 -35 30 -27 35 -28 36 -69 10 -22 -13 -31 -25 -27
-35 9 -23 34 -18 34 7 0 20 1 21 20 3 26 -24 27 -65 1 -65 -11 0 -22 -4 -26
-9 -3 -6 -20 -4 -41 5 -20 8 -48 14 -62 13 -33 -3 -92 21 -92 37 0 6 7 18 16
25 14 11 19 10 35 -10 16 -20 20 -21 25 -7 3 9 4 28 1 42 -3 20 0 28 14 31 21
6 31 44 33 126 1 48 3 52 26 52 14 0 30 3 35 7 6 3 19 0 29 -7 15 -11 18 -23
14 -53 -5 -31 -2 -41 13 -50 11 -7 19 -18 18 -25 0 -8 -2 -8 -6 2 -4 11 -7 11
-14 0 -12 -20 19 -68 45 -69 5 0 6 14 2 30 l-6 30 41 -41 c37 -37 46 -42 92
-43 41 -1 59 4 84 23 18 13 29 29 26 34 -4 6 0 8 10 4 11 -4 17 -1 17 7 0 7
10 18 23 25 12 7 23 20 24 29 1 9 4 34 8 54 6 31 4 40 -19 63 -14 14 -26 30
-26 36 0 5 -9 4 -19 -3 -15 -9 -25 -9 -46 0 -14 7 -37 12 -51 12 -15 0 -38 14
-60 35 -39 39 -46 41 -64 20 -16 -20 -84 -20 -100 0 -7 8 -20 15 -29 15 -20 1
-51 24 -51 39 0 6 -9 11 -19 11 -10 0 -21 7 -25 15 -3 8 -11 15 -17 15 -9 0
-9 -4 0 -14 16 -19 -4 -32 -24 -16 -20 16 -40 3 -24 -16 10 -12 4 -14 -34 -14
-25 0 -49 5 -52 10 -10 16 -22 12 -28 -10 -6 -25 -61 -28 -75 -5 -7 14 -11 13
-26 -4 -10 -11 -24 -17 -32 -14 -17 6 -18 -9 -2 -25 9 -9 8 -12 -5 -12 -11 0
-17 -8 -17 -21 0 -16 -5 -20 -20 -16 -28 7 -33 -7 -10 -28 14 -12 20 -14 20
-5 0 10 3 10 16 -1 14 -12 14 -14 -5 -21 -28 -10 -27 -26 2 -30 12 -2 22 -7
23 -13 2 -35 31 -67 76 -83 26 -9 48 -20 48 -25 0 -10 -71 2 -87 15 -6 5 -17
8 -25 7 -7 -2 -23 2 -36 9 -12 7 -27 10 -32 7 -6 -3 -10 0 -10 9 0 8 -5 16
-11 18 -7 2 -7 12 1 32 12 33 1 52 -24 43 -36 -14 -48 -104 -19 -133 13 -13
14 -19 5 -22 -6 -2 -12 -12 -12 -23 0 -12 5 -16 15 -13 11 5 15 0 14 -17 0
-13 -3 -18 -6 -11 -2 6 -9 12 -14 12 -5 0 -18 9 -29 20 -27 27 -52 26 -48 -2
2 -15 9 -22 21 -22 21 2 22 -12 3 -32 -20 -20 -23 -19 -51 26 -26 41 -31 86
-17 164 9 48 32 61 32 17 0 -16 -4 -41 -10 -55 -8 -22 -7 -26 8 -26 9 0 23 -9
30 -20 12 -20 42 -28 42 -12 0 5 -7 17 -15 28 -16 21 -20 104 -5 104 6 0 10
15 10 34 0 19 -4 38 -10 41 -5 3 -10 -1 -10 -10 0 -9 -6 -15 -12 -12 -8 2 -12
17 -10 35 2 18 -1 32 -7 32 -13 0 -35 40 -27 48 4 3 13 -4 22 -16 8 -12 19
-22 25 -22 17 0 9 39 -12 54 -24 16 -18 36 11 36 20 0 40 -27 40 -55 0 -18 23
-45 38 -45 16 0 31 54 20 73 -5 10 -5 23 -1 30 4 6 8 42 8 79 0 59 -2 65 -17
57 -22 -12 -25 -12 -32 7 -4 12 -1 14 14 9 16 -5 23 4 45 50 14 31 23 60 20
65 -3 5 1 20 10 33 8 13 13 31 10 39 -9 23 39 62 69 54 16 -4 41 3 75 21 28
14 54 23 57 20 3 -3 -8 -46 -25 -95 -32 -93 -40 -165 -18 -179 6 -4 32 -10 57
-13 36 -4 46 -9 48 -26 6 -44 101 -60 142 -24 28 24 25 24 58 0 61 -45 163
-34 206 23 23 29 29 32 70 29 37 -3 46 -8 46 -22 0 -47 102 -68 140 -30 11 11
20 27 20 36 0 8 4 13 9 10 5 -3 7 -15 4 -26 -3 -11 -2 -27 1 -36 6 -15 8 -15
25 0 18 17 20 17 31 -3 9 -18 20 -21 71 -21 56 0 60 -2 57 -21 -3 -19 10 -26
107 -61 61 -22 117 -42 126 -45 12 -3 18 4 23 31 9 48 -2 90 -19 76 -19 -15
-55 22 -55 55 0 18 -5 25 -20 25 -13 0 -20 7 -20 20 0 12 -12 26 -30 35 -16 9
-30 19 -30 24 0 5 -18 18 -40 29 -23 11 -41 23 -40 26 1 21 -1 26 -10 21 -16
-10 -50 18 -44 37 3 10 1 18 -5 18 -5 0 -11 -8 -14 -17 -3 -14 -8 -9 -20 17
-9 19 -16 31 -17 26 0 -5 -9 -1 -20 9 -11 10 -18 25 -16 34 17 61 17 81 2 75
-9 -3 -16 -1 -16 4 0 6 -7 12 -16 14 -14 2 -12 8 10 36 26 30 46 41 46 25z
m-401 -48 c45 -23 53 -57 49 -215 -3 -141 -3 -142 -31 -166 -40 -35 -134 -35
-174 0 -27 23 -28 30 -33 128 -8 160 0 215 33 244 33 28 111 33 156 9z m-229
-125 c0 -109 2 -130 15 -130 10 0 15 -11 15 -35 0 -24 -5 -35 -15 -35 -10 0
-15 -11 -15 -35 l0 -35 -55 0 -55 0 0 35 0 35 -60 0 c-59 0 -60 1 -61 28 0 15
19 89 43 164 l43 138 73 0 72 0 0 -130z m520 0 c0 -109 2 -130 15 -130 10 0
15 -11 15 -35 0 -24 -5 -35 -15 -35 -10 0 -15 -11 -15 -35 l0 -35 -55 0 -55 0
0 35 0 35 -60 0 c-59 0 -60 1 -61 28 0 15 19 89 43 164 l43 138 73 0 72 0 0
-130z m-2146 62 c0 -12 5 -22 13 -22 7 0 13 5 13 10 0 6 5 10 10 10 18 0 -1
-142 -21 -160 -17 -14 -23 -36 -20 -69 1 -8 8 -5 20 10 l19 24 7 -75 c6 -61 2
-292 -6 -335 -1 -5 2 -62 6 -125 11 -169 13 -230 10 -230 -2 0 -16 5 -31 10
-20 8 -24 14 -16 22 6 6 8 16 6 23 -3 6 2 18 11 25 8 7 15 19 15 27 0 11 -9
13 -44 8 l-44 -7 1 34 c1 22 -2 32 -10 31 -7 -2 -13 5 -14 15 0 9 -2 32 -4 51
-1 19 1 59 5 90 4 31 5 61 2 66 -4 6 -5 20 -4 32 2 12 -6 30 -19 42 -12 11
-20 23 -17 26 9 9 38 -7 38 -21 0 -8 5 -14 11 -14 6 0 9 12 8 28 -2 15 1 33 5
41 13 21 25 82 19 97 -3 8 -12 14 -20 14 -12 0 -14 -7 -10 -28 3 -15 2 -34 -2
-41 -11 -17 -19 145 -11 201 6 42 6 42 14 -25 7 -64 9 -67 22 -48 12 16 12 25
4 41 -9 17 -6 29 19 67 22 33 28 50 20 57 -7 8 -15 5 -25 -8 -18 -25 -29 -14
-12 13 10 16 10 23 0 33 -14 14 -16 42 -2 33 6 -3 10 1 10 9 0 19 -11 21 -28
4 -9 -9 -12 -7 -12 9 0 23 12 30 45 28 14 -1 20 -9 19 -23z m2219 -664 c2 -7
-1 -24 -8 -38 -14 -29 -15 -307 -1 -328 4 -7 6 -16 3 -19 -10 -9 -27 8 -27 27
0 10 -7 20 -14 23 -13 5 -13 10 1 37 17 34 13 46 -12 36 -10 -4 -15 -15 -13
-29 1 -13 -5 -35 -15 -50 -19 -29 -22 -57 -7 -57 6 0 10 6 10 14 0 16 27 29
34 17 6 -10 -21 -35 -48 -45 -18 -6 -18 -8 -3 -23 15 -15 18 -15 36 8 10 13
23 20 27 16 13 -12 -10 -40 -41 -50 -23 -8 -30 -6 -38 9 -6 10 -21 28 -34 40
-23 21 -29 44 -16 57 3 4 12 2 20 -4 15 -13 18 2 3 17 -15 15 14 80 39 87 33
8 77 134 68 193 -8 50 22 102 36 62z m1607 -78 c0 -5 9 -10 20 -10 18 0 20 -4
14 -40 -5 -33 -4 -40 10 -40 11 0 16 9 16 26 0 19 4 25 18 22 9 -2 17 -10 17
-18 0 -15 32 -44 50 -45 20 -2 44 -17 49 -31 11 -29 -83 -100 -99 -74 -3 5
-15 10 -26 10 -20 0 -26 15 -9 25 15 9 12 25 -5 25 -8 0 -15 5 -15 11 0 7 -9
9 -21 6 -18 -5 -20 -2 -15 19 5 20 3 24 -15 24 -21 0 -21 0 1 18 24 20 19 48
-6 38 -15 -6 -18 3 -8 28 7 18 24 22 24 6z m-4078 -192 c-9 -96 -9 -134 -1
-139 6 -3 29 -2 51 2 41 10 63 5 53 -12 -4 -5 -31 -9 -61 -9 l-54 0 -2 -37
c-1 -21 -2 -49 -2 -63 -1 -20 -7 -26 -28 -28 -20 -2 -28 1 -28 12 0 10 9 16
23 16 21 1 22 1 3 15 -20 15 -20 15 -1 29 19 14 19 15 2 34 -10 11 -14 23 -9
26 5 3 12 18 14 33 3 16 9 37 13 47 7 16 5 18 -8 13 -21 -8 -21 0 -2 57 9 25
17 72 18 105 2 52 4 58 16 46 12 -12 13 -34 3 -147z m3488 93 c0 -29 17 -34
33 -11 12 17 16 18 20 6 4 -9 2 -18 -3 -21 -6 -4 -10 -15 -10 -25 0 -13 -5
-17 -15 -14 -11 5 -15 -1 -15 -21 0 -26 1 -27 18 -13 9 9 27 19 40 22 12 4 22
12 22 17 0 18 18 9 23 -12 3 -12 10 -18 15 -15 14 9 33 -19 26 -38 -4 -11 2
-19 21 -26 23 -9 25 -13 15 -25 -7 -8 -18 -15 -25 -15 -8 0 -15 -6 -18 -12 -4
-10 -7 -10 -18 0 -21 19 -41 15 -34 -8 5 -15 2 -20 -14 -20 -28 0 -35 16 -13
32 10 7 21 21 25 32 5 11 13 16 23 12 11 -4 14 -1 12 12 -2 13 -14 17 -46 18
-23 0 -42 -3 -42 -8 0 -4 5 -8 10 -8 6 0 10 -10 10 -22 -1 -22 -1 -22 -21 5
-13 17 -30 27 -46 27 -23 0 -24 3 -18 33 4 17 12 38 18 45 7 9 4 19 -12 35
-26 29 -27 37 -1 37 13 0 20 -7 20 -19z m-2042 -482 c12 -28 35 -68 52 -89 26
-33 29 -42 19 -58 -16 -26 16 -79 37 -61 19 16 17 -1 -3 -23 -24 -26 6 -25 35
3 12 11 26 18 31 15 4 -3 -16 -30 -45 -60 -29 -30 -62 -73 -74 -95 -26 -53
-42 -53 -34 -1 6 37 -12 196 -36 310 -20 100 -21 110 -12 110 5 0 19 -23 30
-51z m570 -15 c-2 -18 -7 -23 -20 -18 -12 3 -18 0 -18 -10 0 -9 5 -16 11 -16
5 0 7 -5 3 -11 -5 -8 -9 -7 -14 1 -5 8 -15 10 -26 5 -35 -15 -94 -14 -94 1 0
17 7 15 -62 20 -32 2 -72 13 -89 23 -28 17 -29 20 -11 25 11 4 35 1 53 -7 31
-12 35 -12 51 7 12 15 20 18 25 10 5 -7 35 -13 68 -15 54 -4 61 -2 69 17 9 20
12 21 33 7 14 -10 22 -24 21 -39z m58 -123 c-21 -44 -46 -119 -56 -168 -10
-48 -23 -103 -29 -121 -6 -19 -8 -47 -4 -63 8 -42 -7 -35 -44 19 -30 45 -113
203 -113 216 0 14 29 5 34 -11 3 -13 4 -11 3 4 -2 26 41 68 133 128 36 24 74
52 84 64 33 37 30 14 -8 -68z m-1812 -156 c7 -18 27 -20 24 -2 -2 6 6 12 17
12 33 0 29 -31 -14 -118 -22 -45 -46 -103 -52 -128 -11 -42 -14 -45 -27 -32
-13 13 -13 20 -3 50 14 38 4 60 -23 50 -9 -4 -13 -14 -9 -29 4 -22 4 -22 -10
-5 -13 16 -13 23 -2 50 11 26 10 33 -1 45 -17 16 -10 47 16 77 10 11 16 25 14
30 -3 6 11 12 30 13 22 2 36 -3 40 -13z m1356 -286 c46 -13 60 -24 60 -47 0
-10 -5 -10 -20 -2 -18 9 -20 8 -20 -17 0 -25 -1 -26 -14 -8 -12 16 -16 17 -30
6 -13 -11 -19 -11 -32 -1 -18 16 -64 22 -64 9 0 -5 6 -9 14 -9 8 0 14 -10 14
-25 0 -13 -4 -22 -9 -19 -5 3 -9 10 -9 16 0 6 -12 22 -26 35 -20 18 -30 21
-38 13 -8 -8 -7 -13 3 -19 9 -6 10 -11 2 -15 -6 -4 -11 -2 -11 3 0 6 -5 11
-11 11 -5 0 -7 -4 -4 -10 3 -5 -2 -10 -12 -10 -14 -1 -12 -5 11 -24 20 -17 47
-26 95 -31 79 -8 114 -20 91 -29 -32 -13 -180 14 -213 39 -16 12 -17 18 -8 48
21 62 89 107 156 102 17 -1 50 -8 75 -16z"/>
<path d="M553 528 c-50 -16 -57 -66 -7 -54 24 6 24 6 24 -79 0 -84 0 -85 -25
-85 -16 0 -25 -6 -25 -15 0 -33 136 -12 148 23 3 10 -4 12 -32 7 l-36 -7 0 86
c0 82 1 86 23 86 12 0 29 5 37 10 13 9 12 12 -4 25 -22 17 -56 18 -103 3z"/>
<path d="M805 525 c-46 -16 -108 -78 -103 -103 3 -14 20 -18 87 -24 89 -7 106
-15 95 -42 -18 -47 -111 -60 -150 -21 -14 14 -27 25 -29 25 -11 0 -4 -37 11
-58 30 -44 136 -23 187 37 27 32 36 75 18 86 -6 3 -46 8 -91 12 -76 6 -80 7
-64 24 27 30 71 41 89 22 20 -20 38 -5 33 28 -4 29 -29 34 -83 14z"/>
<path d="M1067 528 c-51 -14 -110 -69 -105 -100 3 -21 9 -24 79 -29 42 -4 82
-10 88 -13 34 -21 -10 -66 -72 -73 -38 -5 -47 -2 -69 22 -29 31 -46 19 -27
-17 17 -32 28 -38 73 -38 53 0 119 40 141 85 9 20 14 42 12 49 -6 14 -71 26
-146 26 l-46 1 28 24 c28 25 87 35 87 15 0 -15 30 -12 36 4 7 18 -13 56 -29
55 -7 -1 -29 -6 -50 -11z"/>
<path d="M1315 528 c-104 -36 -136 -170 -55 -228 90 -64 232 22 217 132 -6 46
-29 75 -74 94 -37 16 -47 16 -88 2z m83 -41 c71 -58 35 -181 -52 -181 -41 0
-64 18 -83 62 -36 87 66 177 135 119z"/>
<path d="M1805 528 c-2 -7 -8 -47 -12 -89 l-8 -77 -63 75 c-74 87 -95 92 -100
23 -2 -25 -1 -78 3 -117 5 -55 10 -73 22 -73 12 0 14 13 9 80 -3 44 -1 80 3
80 5 0 37 -33 72 -74 35 -41 69 -73 74 -72 6 1 13 50 17 107 3 57 8 113 10
123 4 22 -20 34 -27 14z"/>
<path d="M1968 530 c-66 -20 -108 -73 -108 -138 0 -37 6 -50 34 -78 29 -29 41
-34 80 -34 78 0 135 44 150 116 19 85 -70 161 -156 134z m55 -31 c36 -19 57
-52 57 -92 0 -49 -13 -73 -50 -92 -38 -20 -73 -11 -105 27 -31 37 -33 86 -4
122 33 42 67 53 102 35z"/>
<path d="M2336 532 c-3 -5 -8 -45 -12 -89 l-7 -81 -65 74 c-39 45 -71 74 -81
72 -20 -4 -25 -63 -16 -165 5 -56 10 -73 22 -73 13 0 14 11 8 74 -4 45 -3 76
3 80 6 3 38 -27 73 -66 34 -40 67 -73 73 -73 7 0 14 40 18 105 3 58 8 114 10
124 3 20 -16 34 -26 18z"/>
<path d="M3220 527 c-25 -9 -36 -19 -38 -36 -3 -21 -1 -23 22 -17 25 6 26 5
26 -41 0 -27 3 -65 6 -85 6 -37 6 -38 -25 -38 -21 0 -31 -5 -31 -15 0 -18 71
-21 119 -4 41 14 43 43 2 34 -29 -6 -29 -6 -36 47 -11 88 -5 111 33 120 34 9
43 32 16 42 -23 9 -54 6 -94 -7z"/>
<path d="M3466 525 c-50 -18 -108 -73 -104 -100 3 -17 13 -21 79 -26 42 -4 82
-10 88 -13 18 -12 12 -33 -15 -55 -37 -29 -85 -27 -123 5 l-31 26 0 -25 c0
-82 157 -71 211 16 39 64 12 85 -113 86 -54 1 -60 11 -23 35 29 19 66 21 83 4
18 -18 36 5 28 36 -7 30 -23 32 -80 11z"/>
<path d="M2553 519 c-18 -5 -35 -14 -38 -19 -9 -14 -9 -171 -1 -198 6 -19 15
-22 57 -22 60 0 119 23 119 46 0 10 -5 14 -15 10 -8 -3 -38 -8 -66 -12 -55 -7
-69 1 -69 43 0 18 9 23 50 32 28 6 61 11 73 11 27 0 54 16 44 26 -9 9 -52 10
-114 1 -49 -7 -53 -6 -53 12 0 21 49 41 103 41 29 0 34 9 15 28 -14 14 -59 14
-105 1z"/>
<path d="M2825 515 c-69 -32 -106 -84 -107 -150 -1 -59 21 -85 75 -85 44 0
137 45 137 67 0 17 -10 17 -35 -1 -11 -7 -36 -18 -56 -25 -43 -14 -85 0 -94
30 -9 28 34 96 71 114 40 19 54 19 68 0 19 -25 39 -3 31 34 -5 25 -11 31 -33
31 -15 -1 -40 -7 -57 -15z"/>
<path d="M2993 519 c-20 -6 -33 -16 -33 -26 0 -13 9 -15 60 -10 33 3 60 2 60
-2 0 -4 -29 -45 -65 -91 -36 -45 -64 -88 -62 -94 6 -18 196 -15 207 4 14 23
-1 29 -50 20 -25 -5 -60 -9 -78 -10 -42 0 -37 9 52 108 36 40 66 77 66 81 0
25 -97 37 -157 20z"/>
<path d="M3843 519 c-18 -5 -34 -13 -37 -18 -9 -14 -10 -131 -2 -178 l8 -43
51 0 c54 0 126 28 117 45 -3 6 -12 9 -20 8 -114 -17 -117 -17 -124 13 -10 37
10 51 84 60 61 7 89 18 77 30 -9 9 -61 9 -123 -1 -40 -6 -44 -4 -44 14 0 21
48 41 103 41 16 0 27 5 27 14 0 26 -54 33 -117 15z"/>
<path d="M3299 112 c-37 -38 -59 -73 -59 -94 0 -16 10 -18 69 -18 67 0 69 1
76 27 l8 28 6 -25 c6 -23 12 -25 68 -28 l62 -3 5 33 c2 18 4 42 4 53 -1 11 2
27 6 36 6 15 -4 17 -89 18 -64 1 -94 -2 -90 -9 3 -5 1 -10 -4 -10 -6 0 -11 5
-11 10 0 18 -25 9 -51 -18z"/>
</g>
</svg>
